<?xml version="1.0" encoding="utf-8" ?>
<!-- Generator: Assembly 1.0 - http://assemblyapp.co -->
<svg version="1.1" xmlns="http://www.w3.org/2000/svg" xmlns:xlink="http://www.w3.org/1999/xlink" width="300" height="300" viewBox="0 0 300 300">
	<rect x="0" y="0" width="300" height="300" fill="#ffffff" />
	<g id="widget" transform="matrix(1,0,0,1,150,150)">
		<path d="M-81.892527,-46.009076 L14.958417,-46.009076 L14.958417,93.919254 L-81.892527,93.919254 Z" fill="#fdf4af" fill-opacity="1" stroke-width="21.9167" stroke="#fdf4af" stroke-linecap="round" stroke-linejoin="round" />
		<path d="M-85.907682,-49.848831 L-33.423541,-80.387955 L19.060602,-49.848831 Z" fill="#fce29c" fill-opacity="1" stroke-width="13.689" stroke="#fce29c" stroke-linecap="round" stroke-linejoin="round" />
		<path d="M-11.057127,-63.187622 L-58.073867,-63.187622 L-53.361359,-86.695992 L-15.769637,-86.695992 Z" fill="#fce29c" fill-opacity="1" />
		<path d="M-54.904663,-83.978733 L-54.904663,-102.15778 L-14.22633,-102.15778 L-14.22633,-83.978733 L-54.904663,-83.978733 L-54.904663,-83.978733 Z" fill="#bc5757" fill-opacity="1" stroke-width="7.97369" stroke="#bc5757" stroke-linecap="round" stroke-linejoin="round" />
		<path d="M25.916748,64.633571 L-93.010103,64.633571 L-93.010103,-16.723392 L25.916748,-16.723392 L25.916748,64.633571 Z" fill="#ffffff" fill-opacity="1" />
		<path d="M-24.051898,47.463459 L-42.84776,47.463459 L-42.84776,0.44671988 L-24.051898,0.44671988 L-24.051898,47.463459 L-24.051898,47.463459 Z" fill="#a63131" fill-opacity="1" />
		<path d="M-56.958199,33.35302 L-56.958199,14.557158 L-9.9414595,14.557158 L-9.9414595,33.35302 L-56.958199,33.35302 L-56.958199,33.35302 Z" fill="#a63131" fill-opacity="1" />
		<path d="M-92.760999,-50.557944 L25.916751,-50.557944 L25.916751,-36.565592 L-92.760999,-36.565592 Z" fill="#fdf4af" fill-opacity="1" />
		<path d="M5.2314417,-13.881624 L95.484319,-13.881624 L95.484319,116.51395 L5.2314417,116.51395 Z" fill="#91d1db" fill-opacity="1" stroke-width="20.4236" stroke="#91d1db" stroke-linecap="round" stroke-linejoin="round" />
		<path d="M1.4898227,-17.459792 L50.39843,-45.918409 L99.307039,-17.459792 Z" fill="#6bb4bf" fill-opacity="1" stroke-width="12.7565" stroke="#6bb4bf" stroke-linecap="round" stroke-linejoin="round" />
		<path d="M71.241109,-29.889865 L27.427432,-29.889865 L31.818895,-51.796704 L66.849644,-51.796704 Z" fill="#6bb4bf" fill-opacity="1" />
		<path d="M30.380731,-49.264561 L30.380731,-66.205141 L68.287812,-66.205141 L68.287812,-49.264561 L30.380731,-49.264561 L30.380731,-49.264561 Z" fill="#3a8686" fill-opacity="1" stroke-width="7.43047" stroke="#3a8686" stroke-linecap="round" stroke-linejoin="round" />
		<path d="M105.6961,89.223382 L-5.1287382,89.223382 L-5.1287382,13.408943 L105.6961,13.408943 L105.6961,89.223382 Z" fill="#ffffff" fill-opacity="1" />
		<path d="M59.13162,73.223001 L41.616245,73.223001 L41.616245,29.409324 L59.13162,29.409324 L59.13162,73.223001 L59.13162,73.223001 Z" fill="#a63131" fill-opacity="1" />
		<path d="M28.467094,60.07385 L28.467094,42.558475 L72.280771,42.558475 L72.280771,60.07385 L28.467094,60.07385 L28.467094,60.07385 Z" fill="#a63131" fill-opacity="1" />
		<path d="M-4.8966045,-18.120597 L105.6961,-18.120597 L105.6961,-5.081487 L-4.8966045,-5.081487 Z" fill="#91d1db" fill-opacity="1" />
		<path d="M-117.45869,-85.94944 L-114.10775,-73.378974 C-113.61131,-71.499609 -115.33111,-69.779813 -117.19274,-70.293979 L-129.78094,-73.662651 C-131.6603,-74.159087 -132.28085,-76.517158 -130.89792,-77.900087 L-121.6784,-87.119611 C-120.3132,-88.44935 -117.97286,-87.846535 -117.45869,-85.94944 Z" fill="#ffd163" fill-opacity="1" />
		<path d="M106.04902,-75.196967 L112.73804,-86.748386 C113.74139,-88.472095 116.23691,-88.472095 117.21453,-86.748386 L123.90355,-75.17124 C124.9069,-73.447532 123.64628,-71.286465 121.63957,-71.286465 L108.26154,-71.286465 C106.30629,-71.312191 105.04567,-73.447532 106.04902,-75.196967 Z" fill="#5bcfbf" fill-opacity="1" />
		<path d="M-123.42382,-102.91572 C-123.42382,-97.924969 -127.46963,-93.879164 -132.46038,-93.879164 C-137.45114,-93.879164 -141.49694,-97.924969 -141.49694,-102.91572 C-141.49694,-107.90648 -137.45114,-111.95228 -132.46038,-111.95228 C-127.46963,-111.95228 -123.42382,-107.90648 -123.42382,-102.91572 Z" fill="#ffb30d" fill-opacity="1" />
		<path d="M-103.78884,-104.78694 C-102.75539,-102.99696 -103.36869,-100.70812 -105.15867,-99.674678 C-106.94865,-98.641232 -109.23749,-99.254524 -110.27093,-101.0445 C-111.30438,-102.83449 -110.69109,-105.12332 -108.90111,-106.15677 C-107.11113,-107.19022 -104.82229,-106.57692 -103.78884,-104.78694 Z" fill="#ff9702" fill-opacity="1" />
		<path d="M125.6296,-112.92854 C130.00628,-110.53014 131.60999,-105.03786 129.21159,-100.66118 C126.81319,-96.284502 121.32091,-94.680788 116.94423,-97.079186 C112.56755,-99.477583 110.96384,-104.96987 113.36224,-109.34655 C115.76063,-113.72322 121.25292,-115.32694 125.6296,-112.92854 Z" fill="#2d97b7" fill-opacity="1" />
		<path d="M141.76442,-87.377287 C143.39403,-86.436432 143.95237,-84.35266 143.01152,-82.723051 C142.07066,-81.093443 139.98689,-80.535097 138.35728,-81.475952 C136.72767,-82.416807 136.16933,-84.50058 137.11018,-86.130188 C138.05104,-87.759797 140.13481,-88.318142 141.76442,-87.377287 Z" fill="#008c9f" fill-opacity="1" />
	</g>
</svg>