<?xml version="1.0" encoding="utf-8" ?>
<!-- Generator: Assembly 1.0 - http://assemblyapp.co -->
<svg version="1.1" xmlns="http://www.w3.org/2000/svg" xmlns:xlink="http://www.w3.org/1999/xlink" width="300" height="200" viewBox="0 0 300 200">
	<rect x="0" y="0" width="300" height="200" fill="#bedde8" />
	<g id="widget" transform="matrix(1,0,0,1,150,100)">
		<path d="M105.55573,68.458769 C103.78303,68.458769 102.14669,68.958762 100.78307,69.776932 C98.737646,66.549706 95.146789,64.367919 91.055939,64.367919 C86.010558,64.367919 81.737892,67.595145 80.19246,72.185988 C79.328836,71.867811 78.419758,71.685995 77.465227,71.685995 C73.147108,71.685995 69.692612,75.140491 69.692612,79.45861 C69.692612,83.776729 73.147108,87.231225 77.465227,87.231225 L105.46482,87.231225 C110.69202,87.231225 114.87378,83.049467 114.87378,77.82227 C114.91923,72.685981 110.69202,68.458769 105.55573,68.458769 Z" fill="#ffffff" fill-opacity="1" />
		<path d="M-60.852659,42.072674 C-62.399242,42.072674 -63.826856,42.50889 -65.016535,43.222697 C-66.801054,40.407124 -69.933875,38.503637 -73.502912,38.503637 C-77.904726,38.503637 -81.632386,41.319211 -82.98069,45.324464 C-83.734153,45.046872 -84.527272,44.888248 -85.360048,44.888248 C-89.127365,44.888248 -92.141219,47.902102 -92.141219,51.669419 C-92.141219,55.436736 -89.127365,58.450591 -85.360048,58.450591 L-60.931969,58.450591 C-56.371533,58.450591 -52.723185,54.802241 -52.723185,50.241804 C-52.683529,45.760679 -56.371533,42.072674 -60.852659,42.072674 Z" fill="#ffffff" fill-opacity="1" />
		<path d="M41.287262,2.6925296 C40.120498,2.6925296 39.043487,3.0216163 38.145977,3.5601223 C36.799713,1.4360157 34.436271,1.888073e-14 31.743741,1.888073e-14 C28.422954,1.888073e-14 25.610758,2.1241065 24.593579,5.1457227 C24.025156,4.9363041 23.426817,4.8166362 22.79856,4.8166362 C19.956446,4.8166362 17.682754,7.0903273 17.682754,9.9324417 C17.682754,12.774556 19.956446,15.048248 22.79856,15.048248 L41.227429,15.048248 C44.667883,15.048248 47.420245,12.295885 47.420245,8.8554304 C47.450162,5.4748098 44.667883,2.6925296 41.287262,2.6925296 Z" fill="#ffffff" fill-opacity="1" />
		<path d="M-11.345685,-54.288711 C-11.94866,-54.288711 -12.505251,-54.118641 -12.969077,-53.840345 C-13.664817,-54.938068 -14.886225,-55.68019 -16.277704,-55.68019 C-17.993862,-55.68019 -19.447184,-54.582467 -19.972854,-53.020919 C-20.26661,-53.129145 -20.575828,-53.190989 -20.900506,-53.190989 C-22.369289,-53.190989 -23.544316,-52.015962 -23.544316,-50.547179 C-23.544316,-49.078396 -22.369289,-47.903369 -20.900506,-47.903369 L-11.376607,-47.903369 C-9.5986059,-47.903369 -8.1762059,-49.32577 -8.1762059,-51.10377 C-8.1607452,-52.850849 -9.5986059,-54.288711 -11.345685,-54.288711 Z" fill="#ffffff" fill-opacity="1" />
		<path d="M71.024992,-81.516964 C69.858229,-81.516964 68.781217,-81.187877 67.883708,-80.649371 C66.537443,-82.773478 64.174001,-84.209493 61.481472,-84.209493 C58.160685,-84.209493 55.348488,-82.085387 54.33131,-79.063771 C53.762887,-79.273189 53.164547,-79.392857 52.53629,-79.392857 C49.694176,-79.392857 47.420484,-77.119166 47.420484,-74.277052 C47.420484,-71.434937 49.694176,-69.161245 52.53629,-69.161245 L70.965159,-69.161245 C74.405613,-69.161245 77.157976,-71.913609 77.157976,-75.354063 C77.187892,-78.734684 74.405613,-81.516964 71.024992,-81.516964 Z" fill="#ffffff" fill-opacity="1" />
		<path d="M111.70454,-31.972539 C111.10156,-31.972539 110.54497,-31.80247 110.08114,-31.524174 C109.38541,-32.621896 108.164,-33.364018 106.77252,-33.364018 C105.05636,-33.364018 103.60304,-32.266296 103.07737,-30.704748 C102.78361,-30.812974 102.47439,-30.874817 102.14972,-30.874817 C100.68093,-30.874817 99.505906,-29.699791 99.505906,-28.231007 C99.505906,-26.762224 100.68093,-25.587197 102.14972,-25.587197 L111.67362,-25.587197 C113.45162,-25.587197 114.87402,-27.009598 114.87402,-28.787599 C114.88948,-30.534678 113.45162,-31.972539 111.70454,-31.972539 Z" fill="#ffffff" fill-opacity="1" />
		<path d="M-88.087601,-34.307202 C-89.254364,-34.307202 -90.331376,-33.978116 -91.228885,-33.43961 C-92.57515,-35.563716 -94.938592,-36.999732 -97.631122,-36.999732 C-100.95191,-36.999732 -103.76411,-34.875626 -104.78128,-31.854009 C-105.34971,-32.063428 -105.94805,-32.183096 -106.5763,-32.183096 C-109.41842,-32.183096 -111.69211,-29.909405 -111.69211,-27.06729 C-111.69211,-24.225176 -109.41842,-21.951483 -106.5763,-21.951483 L-88.147434,-21.951483 C-84.70698,-21.951483 -81.954617,-24.703847 -81.954617,-28.144301 C-81.9247,-31.524922 -84.70698,-34.307202 -88.087601,-34.307202 Z" fill="#ffffff" fill-opacity="1" />
	</g>
</svg>